<?xml version="1.0" encoding="iso-8859-1"?>
<!-- Uploaded to: SVG Repo, www.svgrepo.com, Generator: SVG Repo Mixer Tools -->
<!DOCTYPE svg PUBLIC "-//W3C//DTD SVG 1.1//EN" "http://www.w3.org/Graphics/SVG/1.1/DTD/svg11.dtd">
<svg version="1.1" id="Capa_1" xmlns="http://www.w3.org/2000/svg" xmlns:xlink="http://www.w3.org/1999/xlink" 
	 viewBox="0 0 297.498 297.498" xml:space="preserve">
<g>
	<g id="XMLID_48_">
		<g>
			<path style="fill:#BCE6EC;" d="M151.588,229.159l45.15,45.15c-10.46,4.19-25.35,3.48-42.62-2.27
				c-25.58-8.53-53.11-26.67-77.52-51.08c-24.41-24.4-42.54-51.94-51.07-77.52c-5.76-17.27-6.47-32.16-2.28-42.62l45.16,45.16
				c-5.75,15.68,3.05,39.34,23.44,59.73c16.28,16.29,34.65,25.18,49.38,25.18C144.948,230.889,148.428,230.319,151.588,229.159z"/>
			
				<rect x="56.729" y="70.786" transform="matrix(0.7071 -0.7071 0.7071 0.7071 -54.1288 74.9992)" style="fill:#CDD9DD;" width="13.477" height="64.106"/>
			
				<rect x="187.989" y="202.046" transform="matrix(0.7071 -0.7071 0.7071 0.7071 -108.4985 206.2592)" style="fill:#CDD9DD;" width="13.477" height="64.106"/>
			<path style="fill:#FF4855;" d="M276.978,30.659v80.4c0,5.56-4.52,10.08-10.08,10.08h-30.13c-2.19,0-4.33,0.71-6.08,2.03
				l-24.06,18.04v-9.93c0-5.6-4.54-10.14-10.14-10.14h-25.09c-5.56,0-10.08-4.52-10.08-10.08v-80.4c0-5.56,4.52-10.08,10.08-10.08
				h95.5C272.458,20.579,276.978,25.099,276.978,30.659z M257.148,69.769c0-5.6-4.54-10.14-10.14-10.14h-15.94v-15.94
				c0-5.6-4.54-10.14-10.14-10.14c-5.6,0-10.13,4.54-10.13,10.14v15.94h-15.95c-5.6,0-10.13,4.54-10.13,10.14
				c0,5.59,4.53,10.13,10.13,10.13h15.95v15.95c0,5.59,4.53,10.13,10.13,10.13c5.6,0,10.14-4.54,10.14-10.13v-15.95h15.94
				C252.608,79.899,257.148,75.359,257.148,69.769z"/>
			<path d="M297.248,30.659v80.4c0,16.74-13.61,30.35-30.35,30.35h-26.75l-37.58,28.18c-1.78,1.35-3.92,2.03-6.08,2.03
				c-1.54,0-3.09-0.35-4.53-1.07c-3.43-1.72-5.6-5.22-5.6-9.06v-20.08h-14.96c-16.74,0-30.35-13.61-30.35-30.35v-80.4
				c0-16.73,13.61-30.35,30.35-30.35h95.5C283.638,0.309,297.248,13.929,297.248,30.659z M276.978,111.059v-80.4
				c0-5.56-4.52-10.08-10.08-10.08h-95.5c-5.56,0-10.08,4.52-10.08,10.08v80.4c0,5.56,4.52,10.08,10.08,10.08h25.09
				c5.6,0,10.14,4.54,10.14,10.14v9.93l24.06-18.04c1.75-1.32,3.89-2.03,6.08-2.03h30.13
				C272.458,121.139,276.978,116.619,276.978,111.059z"/>
			<path d="M247.008,59.629c5.6,0,10.14,4.54,10.14,10.14c0,5.59-4.54,10.13-10.14,10.13h-15.94v15.95
				c0,5.59-4.54,10.13-10.14,10.13c-5.6,0-10.13-4.54-10.13-10.13v-15.95h-15.95c-5.6,0-10.13-4.54-10.13-10.13
				c0-5.6,4.53-10.14,10.13-10.14h15.95v-15.94c0-5.6,4.53-10.14,10.13-10.14c5.6,0,10.14,4.54,10.14,10.14v15.94H247.008z"/>
			<path d="M243.658,244.829c3.96,3.96,3.96,10.37,0,14.33l-23.87,23.87c-9.59,9.59-22.92,14.16-38.46,14.16
				c-34.32,0-79.45-22.28-119.06-61.89c-26.59-26.59-46.47-56.94-55.97-85.45c-10.3-30.87-7.37-56.47,8.23-72.08l23.87-23.86
				c3.96-3.96,10.38-3.96,14.33,0l59.67,59.66c3.96,3.96,3.96,10.37,0,14.33l-24.85,24.72c-2.62,5.22,1.89,22.02,18.63,38.76
				s33.55,21.26,38.76,18.63l24.72-24.85c3.96-3.95,10.38-3.95,14.33,0L243.658,244.829z M212.628,261.529l9.53-9.53l-45.33-45.33
				l-9.53,9.53L212.628,261.529z M196.738,274.309l-45.15-45.15c-3.16,1.16-6.64,1.73-10.36,1.73c-14.73,0-33.1-8.89-49.38-25.18
				c-20.39-20.39-29.19-44.05-23.44-59.73l-45.16-45.16c-4.19,10.46-3.48,25.35,2.28,42.62c8.53,25.58,26.66,53.12,51.07,77.52
				c24.41,24.41,51.94,42.55,77.52,51.08C171.388,277.789,186.278,278.499,196.738,274.309z M81.368,130.269l9.53-9.53l-45.33-45.33
				l-9.53,9.53L81.368,130.269z"/>
		</g>
		<g>
		</g>
	</g>
</g>
</svg>